<svg xmlns="http://www.w3.org/2000/svg" viewBox="0 0 200 280" width="200" height="280">
  <!-- Background gradient -->
  <defs>
    <linearGradient id="grad" x1="0%" y1="0%" x2="100%" y2="100%">
      <stop offset="0%" stop-color="#374151"/> <!-- gray-700 -->
      <stop offset="60%" stop-color="#1f2937"/> <!-- gray-800 -->
      <stop offset="100%" stop-color="#111827"/> <!-- gray-900 -->
    </linearGradient>
    <pattern id="grid" width="20" height="20" patternUnits="userSpaceOnUse">
      <path d="M 20 0 L 0 0 0 20" fill="none" stroke="#ffffff10" stroke-width="1"/>
    </pattern>
    <radialGradient id="glow" cx="50%" cy="40%" r="60%">
      <stop offset="0%" stop-color="#fbbf24" stop-opacity="0.35"/>
      <stop offset="70%" stop-color="#fbbf24" stop-opacity="0"/>
    </radialGradient>
    <clipPath id="rounded-rect">
      <rect x="4" y="4" width="192" height="272" rx="18" ry="18" />
    </clipPath>
  </defs>

  <!-- Outer border -->
  <rect x="2" y="2" width="196" height="276" rx="20" ry="20" fill="#000" opacity="0.55" />
  <rect x="4" y="4" width="192" height="272" rx="18" ry="18" fill="url(#grad)" stroke="#9ca3af55" stroke-width="2" />

  <g clip-path="url(#rounded-rect)">
    <!-- Subtle grid pattern -->
    <rect x="4" y="4" width="192" height="272" fill="url(#grid)" />
    <!-- Central glow -->
    <rect x="4" y="4" width="192" height="272" fill="url(#glow)" />
    <!-- Decorative concentric rings -->
    <g stroke="#fbbf2480" stroke-width="0.7" fill="none">
      <circle cx="100" cy="110" r="52" stroke="#fbbf2426" />
      <circle cx="100" cy="110" r="70" stroke="#fbbf2414" />
      <circle cx="100" cy="110" r="88" stroke="#fbbf240d" />
    </g>
    <!-- Stylized emblem -->
    <g transform="translate(100 110)">
      <path d="M0-36 L20-10 L8-6 L26 20 L0 6 L-26 20 L-8-6 L-20-10 Z" fill="#fbbf24" fill-opacity="0.9" stroke="#fde68a" stroke-width="1.2" />
      <circle r="6" fill="#1f2937" stroke="#fcd34d" stroke-width="1.5" />
    </g>
  </g>

  <!-- Bottom label pattern bars -->
  <g transform="translate(0 210)" opacity="0.55">
    <rect x="24" y="0" width="12" height="46" rx="3" fill="#fbbf24" opacity="0.35" />
    <rect x="44" y="6" width="12" height="40" rx="3" fill="#fbbf24" opacity="0.25" />
    <rect x="64" y="10" width="12" height="36" rx="3" fill="#fbbf24" opacity="0.2" />
    <rect x="124" y="10" width="12" height="36" rx="3" fill="#fbbf24" opacity="0.2" />
    <rect x="144" y="6" width="12" height="40" rx="3" fill="#fbbf24" opacity="0.25" />
    <rect x="164" y="0" width="12" height="46" rx="3" fill="#fbbf24" opacity="0.35" />
  </g>
</svg>